<svg xmlns="http://www.w3.org/2000/svg" xmlns:xlink="http://www.w3.org/1999/xlink" viewBox="0 0 2000 1194"><defs><style>.cls-1{isolation:isolate;}.cls-2{fill:#fff;}.cls-3{fill:url(#linear-gradient);}.cls-4{fill:url(#linear-gradient-2);}.cls-25,.cls-5{fill:none;}.cls-5{stroke-miterlimit:10;stroke-width:3px;stroke:url(#linear-gradient-3);}.cls-6{opacity:0.4;}.cls-18,.cls-22,.cls-6{mix-blend-mode:multiply;}.cls-7{fill:#f1faf5;}.cls-8{fill:url(#linear-gradient-4);}.cls-9{fill:#00b14f;}.cls-10{fill:url(#linear-gradient-5);}.cls-11{fill:url(#linear-gradient-6);}.cls-12{fill:url(#linear-gradient-7);}.cls-13{fill:url(#linear-gradient-8);}.cls-14{fill:url(#linear-gradient-9);}.cls-15{fill:#00a4d1;}.cls-16{fill:url(#linear-gradient-10);}.cls-17{fill:url(#linear-gradient-11);}.cls-18{fill:url(#linear-gradient-12);}.cls-19{fill:url(#linear-gradient-13);}.cls-20{fill:url(#linear-gradient-14);}.cls-21{fill:url(#linear-gradient-15);}.cls-23{fill:url(#linear-gradient-16);}.cls-24{fill:url(#linear-gradient-17);}</style><linearGradient id="linear-gradient" x1="438.3" y1="500.51" x2="1252.68" y2="500.51" gradientUnits="userSpaceOnUse"><stop offset="0" stop-color="#fff" stop-opacity="0.7"/><stop offset="0.27" stop-color="#d3f1e1" stop-opacity="0.7"/><stop offset="0.53" stop-color="#b3e7ca" stop-opacity="0.7"/><stop offset="0.78" stop-color="#a0e1bd" stop-opacity="0.7"/><stop offset="1" stop-color="#99dfb8" stop-opacity="0.7"/></linearGradient><linearGradient id="linear-gradient-2" x1="2723.55" y1="-9929.22" x2="3253.24" y2="-9929.22" gradientTransform="translate(-9083.72 -2487.88) rotate(90)" gradientUnits="userSpaceOnUse"><stop offset="0" stop-color="#ccefdb" stop-opacity="0.7"/><stop offset="1" stop-color="#e4f6ec" stop-opacity="0.7"/></linearGradient><linearGradient id="linear-gradient-3" x1="-1883.97" y1="-13094.93" x2="-1100.07" y2="-13094.93" gradientTransform="translate(-9785.54 -7289.35) rotate(132.73)" gradientUnits="userSpaceOnUse"><stop offset="0" stop-color="#ccefdb"/><stop offset="0.23" stop-color="#d8f3e4"/><stop offset="0.54" stop-color="#e1f5ea"/><stop offset="1" stop-color="#e4f6ec"/></linearGradient><linearGradient id="linear-gradient-4" x1="-10936.13" y1="-5246.98" x2="-10936.13" y2="-5127.75" gradientTransform="translate(-412.79 -11431.59) rotate(-121.76)" gradientUnits="userSpaceOnUse"><stop offset="0" stop-color="#00b14f"/><stop offset="0.36" stop-color="#00af4e"/><stop offset="0.57" stop-color="#01a74b"/><stop offset="0.73" stop-color="#039947"/><stop offset="0.87" stop-color="#068540"/><stop offset="0.99" stop-color="#096c37"/><stop offset="1" stop-color="#096b37"/></linearGradient><linearGradient id="linear-gradient-5" x1="-5320.67" y1="1571.74" x2="-5320.67" y2="1594.42" gradientTransform="translate(3105.8 -4551.13) rotate(-47.32)" xlink:href="#linear-gradient-4"/><linearGradient id="linear-gradient-6" x1="-9028.42" y1="-623.04" x2="-9028.42" y2="-567.89" gradientTransform="translate(2672.11 -8308.82) rotate(-81.1)" xlink:href="#linear-gradient-4"/><linearGradient id="linear-gradient-7" x1="-6491.37" y1="1384.73" x2="-6491.37" y2="1447.66" gradientTransform="translate(3229.94 -5731.23) rotate(-57.12)" xlink:href="#linear-gradient-4"/><linearGradient id="linear-gradient-8" x1="-4617.7" y1="2971.09" x2="-4575.08" y2="2971.09" gradientTransform="translate(5849.08 -1838.05) scale(1 0.89)" gradientUnits="userSpaceOnUse"><stop offset="0" stop-color="#ccedf5"/><stop offset="0.3" stop-color="#c1e9f3"/><stop offset="0.82" stop-color="#a4dfed"/><stop offset="1" stop-color="#99dbeb"/></linearGradient><linearGradient id="linear-gradient-9" x1="-1993.22" y1="-13239.29" x2="-1927.68" y2="-13239.29" gradientTransform="translate(3146.66 13968.6)" gradientUnits="userSpaceOnUse"><stop offset="0" stop-color="#0084a5"/><stop offset="0.05" stop-color="#0082a2"/><stop offset="0.65" stop-color="#006c87"/><stop offset="1" stop-color="#00647d"/></linearGradient><linearGradient id="linear-gradient-10" x1="-4491.92" y1="2171.09" x2="-4700.76" y2="2376.23" gradientTransform="translate(3009.94 -3922.22) rotate(-45.51)" gradientUnits="userSpaceOnUse"><stop offset="0" stop-color="#00a4d1"/><stop offset="1" stop-color="#00647d"/></linearGradient><linearGradient id="linear-gradient-11" x1="-4638.58" y1="2101.39" x2="-4554.2" y2="2101.39" gradientTransform="translate(5884.52 -1271.97)" gradientUnits="userSpaceOnUse"><stop offset="0" stop-color="#fdf4d9"/><stop offset="1" stop-color="#fbe9b3"/></linearGradient><linearGradient id="linear-gradient-12" x1="1254.07" y1="829.42" x2="1322.18" y2="829.42" gradientTransform="translate(977.17 -670.75) rotate(45.51)" gradientUnits="userSpaceOnUse"><stop offset="0" stop-color="#0084a5"/><stop offset="1" stop-color="#00647d"/></linearGradient><linearGradient id="linear-gradient-13" x1="1127.52" y1="217.09" x2="1708.22" y2="217.09" gradientTransform="translate(-419.66 203.54) rotate(4.25)" gradientUnits="userSpaceOnUse"><stop offset="0" stop-color="#0084a5"/><stop offset="1" stop-color="#00a4d1"/></linearGradient><linearGradient id="linear-gradient-14" x1="1132.64" y1="217.09" x2="1703.1" y2="217.09" gradientTransform="translate(-419.66 203.54) rotate(4.25)" xlink:href="#linear-gradient-12"/><linearGradient id="linear-gradient-15" x1="1162.48" y1="217.09" x2="1673.26" y2="217.09" gradientTransform="translate(-419.66 203.54) rotate(4.25)" gradientUnits="userSpaceOnUse"><stop offset="0" stop-color="#0084a5"/><stop offset="0.01" stop-color="#0082a2"/><stop offset="0.13" stop-color="#007491"/><stop offset="0.26" stop-color="#006b86"/><stop offset="0.46" stop-color="#00657f"/><stop offset="1" stop-color="#00647d"/></linearGradient><linearGradient id="linear-gradient-16" x1="-4841.99" y1="1666.98" x2="-4350.73" y2="1666.98" gradientTransform="translate(3009.94 -3922.22) rotate(-45.51)" gradientUnits="userSpaceOnUse"><stop offset="0" stop-color="#99dbeb"/><stop offset="0.27" stop-color="#9dddec"/><stop offset="0.56" stop-color="#aae1ee"/><stop offset="0.86" stop-color="#c0e9f3"/><stop offset="1" stop-color="#ccedf5"/></linearGradient><linearGradient id="linear-gradient-17" x1="-4308.37" y1="1431.89" x2="-4895.68" y2="1880" gradientTransform="translate(5871.61 195.86) rotate(15.73)" gradientUnits="userSpaceOnUse"><stop offset="0" stop-color="#fff"/><stop offset="1" stop-color="#66c9e2"/></linearGradient></defs><title>Asset 32</title><g class="cls-1"><g id="Layer_2" data-name="Layer 2"><g id="Layer_1-2" data-name="Layer 1"><circle class="cls-2" cx="845.49" cy="500.51" r="407.19"/><circle class="cls-3" cx="845.49" cy="500.51" r="407.19"/><circle class="cls-4" cx="845.49" cy="500.51" r="264.85"/><circle class="cls-5" cx="845.53" cy="500.62" r="390.45"/><g class="cls-6"><circle class="cls-7" cx="845.49" cy="500.51" r="407.19"/></g><path class="cls-8" d="M890.08,642.46l.25.08L991.42,580c0-.18,0-.27,0-.27s-39.65-13.34-67.65,4S890.08,642.46,890.08,642.46Z"/><path class="cls-9" d="M957.73,638.47c26.69-16.52,33.15-55,33.69-58.5L890.33,642.54C893.75,643.63,931,655,957.73,638.47Z"/><path class="cls-10" d="M652.58,428.23v0l16.63,15.33h0s.42-7.95-4.18-12.2S652.58,428.23,652.58,428.23Z"/><path class="cls-9" d="M656.76,440.42c4.39,4.05,11.76,3.27,12.44,3.19l-16.63-15.33C652.55,429,652.37,436.38,656.76,440.42Z"/><path class="cls-11" d="M658.58,521.81l.07.1L713,530.42l.09-.08s-9.89-16.63-24.94-19S658.58,521.81,658.58,521.81Z"/><path class="cls-9" d="M683.52,540.8c14.35,2.25,28.2-9.3,29.46-10.38l-54.33-8.51C659.52,523.33,669.18,538.55,683.52,540.8Z"/><path class="cls-12" d="M863.91,479s0,.05,0,.14l52.69,34.07.14,0s-2.6-21.93-17.2-31.36S863.91,479,863.91,479Z"/><path class="cls-9" d="M881.1,510.36c13.92,9,33.71,3.39,35.52,2.85l-52.69-34.07C864.18,481,867.19,501.37,881.1,510.36Z"/><rect class="cls-13" x="1231.38" y="665.29" width="42.62" height="258.63" rx="12" transform="translate(-192.01 1131.46) rotate(-45.51)"/><rect class="cls-14" x="1153.45" y="710.94" width="65.54" height="36.74" rx="10.5" transform="translate(2537.76 394.13) rotate(134.49)"/><path class="cls-15" d="M1276.8,759.15a25,25,0,0,0-35.19.32l-24.25,24.68a25,25,0,0,0,.31,35.19l36.4,35.76,59.13-60.19Z"/><path class="cls-16" d="M1263.06,863.93l225.09,221.24a39.7,39.7,0,0,0,56-.5l3.64-3.71a39.69,39.69,0,0,0-.5-56L1322.18,803.73Z"/><rect class="cls-17" x="1245.94" y="823.12" width="84.37" height="12.59" transform="translate(-206.24 1167.15) rotate(-45.51)"/><rect class="cls-18" x="1245.94" y="823.12" width="84.37" height="12.59" transform="translate(-206.24 1167.15) rotate(-45.51)"/><path class="cls-19" d="M1125.74,275c-138.08-81.46-316.06-35.56-397.52,102.53S692.66,693.59,830.75,775.05s316.06,35.56,397.52-102.53S1263.83,356.46,1125.74,275ZM960.15,770C824.9,760,723.4,642.17,733.45,506.93s127.82-236.75,263.07-226.7,236.74,127.82,226.7,263.07S1095.4,780,960.15,770Z"/><path class="cls-20" d="M1178.12,321.55c-112.38-110.39-293-108.78-403.36,3.6s-108.77,293,3.61,403.36,293,108.77,403.35-3.61S1290.5,431.93,1178.12,321.55ZM960.15,770C824.9,760,723.4,642.17,733.45,506.93s127.82-236.75,263.07-226.7,236.74,127.82,226.7,263.07S1095.4,780,960.15,770Z"/><path class="cls-21" d="M1157.21,342.83c-100.62-98.84-262.32-97.39-361.16,3.23s-97.39,262.32,3.23,361.16,262.32,97.39,361.16-3.23S1257.83,441.67,1157.21,342.83ZM960.15,770C824.9,760,723.4,642.17,733.45,506.93s127.82-236.75,263.07-226.7,236.74,127.82,226.7,263.07S1095.4,780,960.15,770Z"/><g class="cls-22"><circle class="cls-23" cx="978.24" cy="524.98" r="245.63"/><ellipse class="cls-24" cx="962.3" cy="554.03" rx="212.49" ry="243.4" transform="translate(13.66 1131.15) rotate(-61.25)"/></g><rect class="cls-25" width="2000" height="1194"/></g></g></g></svg>