<svg xmlns="http://www.w3.org/2000/svg" xmlns:xlink="http://www.w3.org/1999/xlink" viewBox="0 0 360 216"><defs><style>.cls-1{fill:#e5f7ed;}.cls-2{fill:#ccedf5;}.cls-3{opacity:0.3;}.cls-4{fill:#fff;}.cls-5{fill:#99dbeb;opacity:0.5;}.cls-6{fill:#ee6352;}.cls-7{fill:#f18274;}.cls-8{fill:url(#linear-gradient);}.cls-9{fill:#6b4d39;}.cls-10{fill:#33c172;}.cls-11{fill:#f7c942;}.cls-12{fill:#f9ba8a;}.cls-13{fill:url(#linear-gradient-2);}.cls-14{fill:#006a2f;}.cls-15{fill:#005422;}.cls-16{fill:#fade8d;}.cls-17{fill:#fdf4d9;}.cls-18{fill:#f4a197;}.cls-19{fill:#fcdfdb;}.cls-20{fill:#00b14f;}.cls-21{fill:#32c072;}.cls-22{fill:#b2e8ca;}.cls-23{fill:#99e0b9;}.cls-24{fill:url(#linear-gradient-3);}.cls-25{fill:#6b3e2a;}.cls-26{fill:#e5a677;}.cls-27{fill:#b26746;}.cls-28{fill:#33b7d9;}.cls-29{fill:#41342e;}.cls-30{fill:#00a5cf;}.cls-31{fill:#8f5338;}.cls-32{fill:none;}</style><linearGradient id="linear-gradient" x1="87.23" y1="48.43" x2="97.46" y2="38.2" gradientTransform="translate(49.68 12.77)" gradientUnits="userSpaceOnUse"><stop offset="0" stop-color="#ee6352" stop-opacity="0"/><stop offset="0.12" stop-color="#eb6251" stop-opacity="0.05"/><stop offset="0.33" stop-color="#e35e4e" stop-opacity="0.18"/><stop offset="0.6" stop-color="#d65949" stop-opacity="0.4"/><stop offset="0.91" stop-color="#c45143" stop-opacity="0.7"/><stop offset="1" stop-color="#be4f41" stop-opacity="0.8"/></linearGradient><linearGradient id="linear-gradient-2" x1="100.02" y1="55.82" x2="100.02" y2="50.01" gradientTransform="translate(50.28 12.26)" gradientUnits="userSpaceOnUse"><stop offset="0" stop-color="#ba7855" stop-opacity="0.3"/><stop offset="0.2" stop-color="#d08f68" stop-opacity="0.19"/><stop offset="0.46" stop-color="#e7a77b" stop-opacity="0.09"/><stop offset="0.73" stop-color="#f4b586" stop-opacity="0.02"/><stop offset="1" stop-color="#f9ba8a" stop-opacity="0"/></linearGradient><linearGradient id="linear-gradient-3" x1="179.12" y1="111.02" x2="179.63" y2="111.52" gradientUnits="userSpaceOnUse"><stop offset="0" stop-color="#606062"/><stop offset="0.35" stop-color="#4b4b4d"/><stop offset="0.7" stop-color="#3d3d3f"/><stop offset="1" stop-color="#38383a"/></linearGradient></defs><title>Asset 141</title><g id="Layer_2" data-name="Layer 2"><g id="Layer_1-2" data-name="Layer 1"><path class="cls-1" d="M216.43,79.19c-.79-2.85-22.7-12.21-51.67-14-25-1.5-35.27-.88-35.6,1s18.4,5.14,47.08,8.83C208,79.18,217.38,82.61,216.43,79.19Z"/><path class="cls-2" d="M190.77,58,169,54.65,165.45,77.9A5.48,5.48,0,0,0,170,84.14L181,85.81a5.48,5.48,0,0,0,6.24-4.59Z"/><path class="cls-2" d="M169.2,53.31,191,56.63l2.27-14.84a10.18,10.18,0,0,0-8.52-11.59L183.05,30a10.18,10.18,0,0,0-11.59,8.52Z"/><g class="cls-3"><path class="cls-4" d="M191.52,41.3A8.19,8.19,0,0,0,184.66,32l-.53-.08a1.54,1.54,0,0,0-1.76,1.3L175,81.54a1.55,1.55,0,0,0,1.29,1.76L181,84a4,4,0,0,0,4.54-3.34Z"/></g><rect class="cls-2" x="180.59" y="27.42" width="6.75" height="4.18" transform="translate(6.55 -27.39) rotate(8.67)"/><rect class="cls-5" x="181.64" y="28.99" width="4.55" height="1.72" rx="0.86" transform="translate(6.6 -27.37) rotate(8.67)"/><rect class="cls-6" x="173.17" y="37.55" width="15.78" height="22.02" transform="matrix(0.15, -0.99, 0.99, 0.15, 105.77, 220.24)"/><rect class="cls-6" x="178.11" y="43.3" width="15.78" height="12.04" transform="translate(109.21 225.76) rotate(-81.33)"/><rect class="cls-7" x="177.23" y="44.05" width="15.78" height="10.27" transform="translate(108.6 224.78) rotate(-81.33)"/><rect class="cls-7" x="180.41" y="23.27" width="8.21" height="5.28" rx="1.11" transform="translate(6.01 -27.51) rotate(8.67)"/><rect class="cls-6" x="180.44" y="22.97" width="4.31" height="5.28" rx="1.11" transform="translate(5.95 -27.22) rotate(8.67)"/><rect class="cls-6" x="133.51" y="54.19" width="17.03" height="3.79" rx="0.31" transform="translate(-3.31 9.23) rotate(-3.68)"/><rect class="cls-8" x="133.51" y="54.19" width="17.03" height="3.79" rx="0.31" transform="translate(-3.31 9.23) rotate(-3.68)"/><rect class="cls-6" x="148.82" y="53.21" width="17.03" height="3.79" rx="0.31" transform="matrix(1, -0.06, 0.06, 1, -3.21, 10.21)"/><rect class="cls-9" x="132.37" y="48.93" width="34.06" height="4.8" rx="0.79" transform="translate(-2.99 9.69) rotate(-3.68)"/><path class="cls-10" d="M136.73,55.6a8.28,8.28,0,0,1-2.36-.15,6,6,0,0,0-2-.13h0a.78.78,0,0,1-.1-1.55h0a8.19,8.19,0,0,1,2.36.16,6.67,6.67,0,0,0,2,.13h0a6.6,6.6,0,0,0,1.94-.38,8.2,8.2,0,0,1,2.33-.46h0a8.19,8.19,0,0,1,2.36.16,6.65,6.65,0,0,0,2,.13,6.54,6.54,0,0,0,1.94-.39,8.28,8.28,0,0,1,2.33-.45h0a8.28,8.28,0,0,1,2.36.15,6.68,6.68,0,0,0,2,.13,6.29,6.29,0,0,0,1.94-.38,8,8,0,0,1,2.33-.45h0a7.92,7.92,0,0,1,2.36.15,6.61,6.61,0,0,0,2,.13h0a6.6,6.6,0,0,0,1.94-.38,8.28,8.28,0,0,1,2.33-.46h0a.78.78,0,0,1,.1,1.55,6.5,6.5,0,0,0-1.94.38,7.93,7.93,0,0,1-2.33.45h0a7.92,7.92,0,0,1-2.36-.15,6.67,6.67,0,0,0-2-.13h0a6.43,6.43,0,0,0-1.94.38,8.28,8.28,0,0,1-2.33.46h0a8.19,8.19,0,0,1-2.36-.16,6.67,6.67,0,0,0-2-.13h0a6.43,6.43,0,0,0-1.94.38,8.28,8.28,0,0,1-2.33.46h0a8.19,8.19,0,0,1-2.36-.16,6.67,6.67,0,0,0-2-.13h0a6.75,6.75,0,0,0-1.94.38,7.93,7.93,0,0,1-2.33.46Z"/><path class="cls-11" d="M152.11,54.42l-7.17-5.21,16.53-1.06L155,54.23A2.39,2.39,0,0,1,152.11,54.42Z"/><rect class="cls-9" x="132.92" y="57.48" width="34.06" height="4.8" rx="0.79" transform="translate(-3.53 9.75) rotate(-3.68)"/><path class="cls-12" d="M134.2,62.27h32.18a.41.41,0,0,1,.41.41v3.91a1.5,1.5,0,0,1-1.5,1.5h-30a1.5,1.5,0,0,1-1.5-1.5V62.68a.41.41,0,0,1,.41-.41Z" transform="translate(-3.87 9.78) rotate(-3.68)"/><path class="cls-13" d="M134.2,62.27h32.18a.41.41,0,0,1,.41.41v3.91a1.5,1.5,0,0,1-1.5,1.5h-30a1.5,1.5,0,0,1-1.5-1.5V62.68a.41.41,0,0,1,.41-.41Z" transform="translate(-3.87 9.78) rotate(-3.68)"/><path class="cls-12" d="M132.91,41.51h32.2a.4.4,0,0,1,.4.4v5a2,2,0,0,1-2,2H134.55a2,2,0,0,1-2-2v-5A.4.4,0,0,1,132.91,41.51Z" transform="translate(300.62 80.79) rotate(176.32)"/><rect class="cls-14" x="218.39" y="44.08" width="27.58" height="23.64" transform="translate(469.58 30.01) rotate(160.24)"/><path class="cls-15" d="M238.43,44.6l.82-.29a.16.16,0,0,0,.09-.19.15.15,0,0,0-.19-.09l-.82.29a.17.17,0,0,0-.09.19A.15.15,0,0,0,238.43,44.6Z"/><path class="cls-15" d="M241.72,51.28l.82-.3a.15.15,0,0,0,.09-.18.15.15,0,0,0-.19-.09l-.82.29a.15.15,0,0,0,.1.28Z"/><path class="cls-15" d="M233.57,50.12l.81-.3a.13.13,0,0,0,.09-.18.14.14,0,0,0-.19-.09l-.81.29a.14.14,0,0,0-.09.19A.16.16,0,0,0,233.57,50.12Z"/><path class="cls-15" d="M230.06,47.24l.81-.29a.15.15,0,0,0,.09-.19.14.14,0,0,0-.19-.09L230,47a.15.15,0,0,0,.1.28Z"/><path class="cls-15" d="M240,61.27l.82-.3a.14.14,0,0,0,.08-.18.13.13,0,0,0-.18-.09l-.82.29a.14.14,0,0,0-.09.19A.16.16,0,0,0,240,61.27Z"/><path class="cls-15" d="M240.52,53.23l.58-.2a.15.15,0,0,0,.09-.19.14.14,0,0,0-.19-.09l-.58.21a.14.14,0,0,0-.09.19A.15.15,0,0,0,240.52,53.23Z"/><path class="cls-15" d="M243.4,55.59l.58-.21a.14.14,0,0,0,.09-.19.15.15,0,0,0-.19-.08l-.58.21a.13.13,0,0,0-.09.18A.14.14,0,0,0,243.4,55.59Z"/><path class="cls-15" d="M236.45,56.85l.58-.21a.13.13,0,0,0,.09-.18.14.14,0,0,0-.19-.09l-.58.21a.13.13,0,0,0-.09.18A.14.14,0,0,0,236.45,56.85Z"/><path class="cls-15" d="M229.42,54.38l.59-.21a.16.16,0,0,0,.09-.19.15.15,0,0,0-.19-.08l-.59.21a.14.14,0,0,0-.08.18A.13.13,0,0,0,229.42,54.38Z"/><path class="cls-15" d="M238.71,43.27l1.63-.59a.15.15,0,1,0-.1-.28l-1.63.59a.14.14,0,0,0-.09.19A.16.16,0,0,0,238.71,43.27Z"/><path class="cls-15" d="M229.87,62.83l2.29-.82a.14.14,0,0,0,.09-.19.16.16,0,0,0-.19-.09l-2.28.83a.14.14,0,0,0,.09.27Z"/><path class="cls-15" d="M231.9,61.27l1.63-.59a.16.16,0,0,0,.09-.19.17.17,0,0,0-.19-.09L231.8,61a.14.14,0,0,0-.09.19A.16.16,0,0,0,231.9,61.27Z"/><path class="cls-15" d="M227.17,53.25l1.64-.59a.15.15,0,0,0,.08-.19.15.15,0,0,0-.18-.09l-1.64.59a.15.15,0,0,0-.08.19A.15.15,0,0,0,227.17,53.25Z"/><path class="cls-11" d="M189.75,55.83c.45-1,1.92-1.47,2.57-2.36s.61-2.43,1.44-3.18,2.34-.54,3.3-1.12,1.47-2,2.52-2.41,2.39.3,3.49.06,2-1.44,3.13-1.52,2.21,1,3.34,1,2.32-.86,3.42-.66,1.91,1.49,3,1.82,2.46-.29,3.49.16,1.55,1.9,2.49,2.44,2.49.3,3.36.95,1.06,2.2,1.85,3,2.34.89,3,1.74.47,2.4,1,3.34,2,1.5,2.42,2.51-.27,2.42-.05,3.49S235,67.16,235,68.26s-1.13,2.12-1.34,3.21.46,2.46,0,3.49Z"/><path class="cls-11" d="M218.05,49.22c1,.45,1.54,1.9,2.48,2.45s2.49.29,3.36.95,1.07,2.2,1.85,3,2.35.88,3,1.74.46,2.39,1,3.33"/><path class="cls-16" d="M229.58,60.77a4.54,4.54,0,0,1-.46-1.62,3.52,3.52,0,0,0-.54-1.68,3.47,3.47,0,0,0-1.47-.87,4.57,4.57,0,0,1-1.53-.85,4.33,4.33,0,0,1-.88-1.47,2.48,2.48,0,0,0-2.58-2,4.6,4.6,0,0,1-1.7-.45,4.43,4.43,0,0,1-1.21-1.23A3.69,3.69,0,0,0,218,49.44l.19-.44a4.1,4.1,0,0,1,1.45,1.36,4.14,4.14,0,0,0,1.06,1.1,4.37,4.37,0,0,0,1.54.4,3.94,3.94,0,0,1,1.85.56,4,4,0,0,1,1.09,1.67,4.14,4.14,0,0,0,.78,1.31,4.36,4.36,0,0,0,1.38.76,4,4,0,0,1,1.67,1,3.87,3.87,0,0,1,.63,1.9,4.33,4.33,0,0,0,.4,1.46Z"/><path class="cls-11" d="M216.4,50.77c1,.45,1.54,1.9,2.49,2.44s2.48.29,3.36.95,1.06,2.2,1.85,3,2.34.89,3,1.74.46,2.4,1,3.34"/><path class="cls-16" d="M227.93,62.32a4.81,4.81,0,0,1-.46-1.63,3.59,3.59,0,0,0-.53-1.68,3.64,3.64,0,0,0-1.47-.87,4.72,4.72,0,0,1-1.54-.85,4.56,4.56,0,0,1-.88-1.46,3.58,3.58,0,0,0-1-1.48,3.43,3.43,0,0,0-1.62-.47,4.81,4.81,0,0,1-1.71-.46,4.68,4.68,0,0,1-1.21-1.22A3.52,3.52,0,0,0,216.3,51l.19-.44a3.93,3.93,0,0,1,1.45,1.36A4.33,4.33,0,0,0,219,53a4.25,4.25,0,0,0,1.53.39,4,4,0,0,1,1.85.57,4.07,4.07,0,0,1,1.1,1.66,4.18,4.18,0,0,0,.77,1.32,4.67,4.67,0,0,0,1.38.75,3.87,3.87,0,0,1,1.67,1,4,4,0,0,1,.64,1.91,4.05,4.05,0,0,0,.39,1.45Z"/><path class="cls-11" d="M209.37,48.24c1,.45,1.55,1.9,2.49,2.44s2.49.29,3.36,1,1.06,2.2,1.85,3,2.34.89,3,1.74.47,2.4,1,3.34"/><path class="cls-16" d="M220.91,59.79a4.59,4.59,0,0,1-.46-1.63,3.59,3.59,0,0,0-.54-1.68,3.57,3.57,0,0,0-1.47-.87,4.72,4.72,0,0,1-1.54-.85A4.56,4.56,0,0,1,216,53.3a3.53,3.53,0,0,0-.94-1.48,3.6,3.6,0,0,0-1.63-.48,4.65,4.65,0,0,1-1.71-.45,4.5,4.5,0,0,1-1.2-1.22,3.73,3.73,0,0,0-1.26-1.22l.19-.43a3.9,3.9,0,0,1,1.44,1.36,4.5,4.5,0,0,0,1.07,1.1,4.31,4.31,0,0,0,1.53.39,2.92,2.92,0,0,1,3,2.23,4.18,4.18,0,0,0,.77,1.32,4.61,4.61,0,0,0,1.39.75,3.9,3.9,0,0,1,1.66,1,4,4,0,0,1,.64,1.91,4.27,4.27,0,0,0,.4,1.45Z"/><path class="cls-4" d="M207.63,48.14c2.14,3.3,1.45,7.55-1.55,9.49s-7.16.86-9.3-2.43-4.11-11.64-1.12-13.58S205.49,44.85,207.63,48.14Z"/><path class="cls-17" d="M234.71,60.37c.51.43.59,1.19.88,1.75s.86,1.08.92,1.72-.43,1.24-.62,1.85-.14,1.37-.57,1.87-1.19.59-1.75.87-1.08.87-1.72.93-1.24-.43-1.85-.62-1.37-.14-1.87-.57-.59-1.19-.87-1.75-.87-1.09-.93-1.72.43-1.24.62-1.85.14-1.37.57-1.87,1.19-.59,1.75-.88,1.08-.87,1.72-.92,1.24.43,1.85.62S234.21,59.94,234.71,60.37Z"/><path class="cls-18" d="M234.32,66.2h0l-.07.08a2.6,2.6,0,0,1-1.54.69,2.54,2.54,0,0,1-2.75-2.32,2.44,2.44,0,0,1,.53-1.78h0a2.34,2.34,0,0,1,1.65-.81h0l.28,0a1.67,1.67,0,0,1,.83.38,2,2,0,0,1,.09,2.76,2.18,2.18,0,0,1-.48.43.28.28,0,0,1-.38-.08.28.28,0,0,1,.08-.39,1.52,1.52,0,0,0,.35-.32,1.4,1.4,0,0,0,0-2,1.2,1.2,0,0,0-.55-.25l-.21,0a1.84,1.84,0,0,0-1.25.62h0a1.85,1.85,0,0,0-.39,1.38,2,2,0,0,0,2.14,1.81,1.94,1.94,0,0,0,1.2-.55l.06,0a2.78,2.78,0,1,0-3.92.34.27.27,0,0,1,0,.39.28.28,0,0,1-.4,0,3.33,3.33,0,1,1,4.7-.39Z"/><ellipse class="cls-11" cx="202.63" cy="52.33" rx="4.11" ry="4.45" transform="translate(4.34 119.25) rotate(-33.13)"/><path class="cls-19" d="M240.48,67.71,189.64,45.54a27.71,27.71,0,0,0,5.14,30l-.56,1.27,20.22,8.82.56-1.27A27.74,27.74,0,0,0,240.48,67.71Z"/><rect class="cls-4" x="185.89" y="59.21" width="55.63" height="1.42" transform="translate(41.76 -80.42) rotate(23.56)"/><rect class="cls-20" x="213.53" y="45.93" width="1.37" height="2.17" transform="translate(-0.26 92.84) rotate(-24.44)"/><rect class="cls-20" x="215.71" y="50.08" width="1.37" height="1.37" transform="translate(1.31 -5.29) rotate(1.41)"/><rect class="cls-21" x="221.24" y="52.49" width="1.37" height="1.37" transform="translate(125.69 -153.75) rotate(51.58)"/><polygon class="cls-21" points="225.47 51.63 224.22 51.44 224.4 50.17 225.66 50.36 225.47 51.63"/><polygon class="cls-21" points="212.52 52.21 211.6 51.53 212.29 50.6 213.2 51.28 212.52 52.21"/><path class="cls-22" d="M204.48,129.31l-64.32-10.42a12.45,12.45,0,0,1-10.45-11.77L127.9,64,233.44,81.09l-15.33,40.35A12.45,12.45,0,0,1,204.48,129.31Z"/><path class="cls-23" d="M191.23,107.42c-1.12,0-2.74,1.08-4.41,1.13-6.75.16-6.28,6.76-5.52,8.65a5.61,5.61,0,0,1,.37,2.93L181,121.2l-.19-.16-1.7.93a24.09,24.09,0,0,0-5.68,5.65l10.1,1.64.79-4.32.28-.52-.11-.1a11.81,11.81,0,0,1,.79-.89l.46,0a7.52,7.52,0,0,0,1.13-.1c2.89-.5,5.93-6.47,5.73-10.45a6.48,6.48,0,0,0-.1-.92,4.25,4.25,0,0,0-.54-1.39h0c.91-1.54.86-2.48-.21-3a1.2,1.2,0,0,0-.57-.13"/><polygon class="cls-23" points="128.16 70.1 231.27 86.8 233.44 81.09 127.9 64 128.16 70.1"/><rect class="cls-22" x="176.5" y="5.35" width="9.94" height="124.57" rx="2.83" transform="translate(85.69 235.95) rotate(-80.8)"/><path class="cls-23" d="M156.09,68.56l-27.86,3.36.46,11,53.43-6.44a5.48,5.48,0,0,0,4.25-3Z"/><path class="cls-23" d="M219,91l-4-.64a1.48,1.48,0,0,0-1.66,1l-7.65,24.21a1.48,1.48,0,0,0,1.18,1.92l4,.65a1.49,1.49,0,0,0,1.66-1l7.65-24.21A1.49,1.49,0,0,0,219,91Z"/><path class="cls-23" d="M203.69,88.49l-3.95-.64A1.49,1.49,0,0,0,198.05,89l-6.19,24.44a1.49,1.49,0,0,0,1.2,1.84l3.95.64a1.49,1.49,0,0,0,1.69-1.11l6.2-24.44A1.5,1.5,0,0,0,203.69,88.49Z"/><path class="cls-23" d="M157.75,81.05l-3.95-.64a1.49,1.49,0,0,0-1.73,1.36l-1.84,25.15a1.51,1.51,0,0,0,1.26,1.59l3.94.64a1.49,1.49,0,0,0,1.73-1.37L159,82.63A1.5,1.5,0,0,0,157.75,81.05Z"/><path class="cls-23" d="M137.61,106.26l4,.64a1.49,1.49,0,0,0,1.73-1.45l.38-25.38a1.49,1.49,0,0,0-1.25-1.5l-4-.65a1.5,1.5,0,0,0-1.73,1.46l-.38,25.38A1.5,1.5,0,0,0,137.61,106.26Z"/><path class="cls-23" d="M188.37,86l-3.94-.64a1.49,1.49,0,0,0-1.7,1.19L178,111.24a1.5,1.5,0,0,0,1.23,1.76l3.94.64a1.5,1.5,0,0,0,1.7-1.2l4.75-24.68A1.49,1.49,0,0,0,188.37,86Z"/><path class="cls-23" d="M173.05,83.53l-3.93-.64a1.49,1.49,0,0,0-1.72,1.28l-3.29,24.91a1.49,1.49,0,0,0,1.24,1.67l3.94.64a1.49,1.49,0,0,0,1.72-1.28L174.3,85.2A1.49,1.49,0,0,0,173.05,83.53Z"/><path class="cls-10" d="M120.65,80.44A5.48,5.48,0,0,1,120,69.52l60.81-7.33a5.48,5.48,0,1,1,1.31,10.88L121.31,80.4C121.09,80.42,120.86,80.44,120.65,80.44Z"/><path class="cls-1" d="M238.11,197.88c-3.16-2.16-36.54-5.54-75.29-2.42-33.43,2.68-48.71.46-48.75,2.8s30.35,2,66.55,4.63C223.36,206.06,242.16,200.66,238.11,197.88Z"/><path class="cls-24" d="M179.37,111.63a.36.36,0,0,0,0-.72.36.36,0,0,0,0,.72Z"/><path class="cls-25" d="M202.42,197.9l-11.3-.18a2,2,0,0,1-1.84-1.38h0a2,2,0,0,1,0-1.22l1.07-3,3.22-.29.4.41a8,8,0,0,0,2.93,1.93l3.62,1.37S202.9,196.21,202.42,197.9Z"/><polygon class="cls-26" points="193.77 189.39 193.71 191.97 190.34 192.26 190.11 189.58 193.77 189.39"/><path class="cls-27" d="M195.12,190.74s3-11.74,4.81-24.12a3.66,3.66,0,0,0-1.35-3.38c-3.73-3-13.3-10.11-22.85-13.91l-13.47-2.7L164.43,162a189.38,189.38,0,0,0,25.29,6.77s-1.06,15.3-.5,21.82Z"/><path class="cls-25" d="M140.42,199.37l-5.8-9.68a1.94,1.94,0,0,1,.21-2.28h0a2,2,0,0,1,1.06-.62l3.09-.66,1.94,2.58-.14.55a8.15,8.15,0,0,0-.1,3.51l.74,3.79S142.11,198.89,140.42,199.37Z"/><polygon class="cls-26" points="143.12 187.56 140.88 188.86 138.86 186.16 141.03 184.55 143.12 187.56"/><path class="cls-27" d="M178.78,149.65s-4.8,15.67-11.94,25.8a6.37,6.37,0,0,1-2.7,2.17c-4.36,1.88-16.43,7.22-21.51,10.84l-2.13-3.81s9.12-9,18.17-13.4c0,0,.69-16.69,3-24.4Z"/><path class="cls-28" d="M182.54,119.91l-1.76,31.58c-3.68,6.48-12.87,4.94-19.17.87a2.45,2.45,0,0,1-1-2.8c1.95-6.22,9-27.36,16.32-32.31Z"/><path class="cls-26" d="M183.89,118a9,9,0,0,0-1.52,1.95l-.1.12c-.75-.61-2.06-1.66-3.86-3l.84-1.81.15-.09c.06.12.13.23.19.34A4.81,4.81,0,0,0,183,118,4.92,4.92,0,0,0,183.89,118Z"/><polygon class="cls-4" points="182.74 119.69 178.51 116.31 176.93 117.25 181.49 122.75 182.74 119.69"/><path class="cls-26" d="M189,107.26c-1-3.14-4.12-3.5-6.7-3.05-2.82.5-2.55,3.41-1.85,7.39.12.69.3,2.68-1.23,3.73,1.28,3,3.28,3.7,5.62,3.29,2.82-.49,5.09-6.46,4.39-10.44A7.27,7.27,0,0,0,189,107.26Z"/><path class="cls-29" d="M188.33,105.86s-2,0-2.25.79.91,4.28-1.61,5.43c0,0,0-1.67-1.17-1.33s-1.45,2.5-.51,3.2c0,0-.1,1.56-3.57,1.45a5.82,5.82,0,0,0-.75-2.93c-1-1.88-2.32-8.48,4.41-8.65,2,0,3.69-1.57,4.85-1S189,104.32,188.33,105.86Z"/><path class="cls-26" d="M207.46,128s.17,1.27,3.34,1.12a6.22,6.22,0,0,1,2.39.35,7.16,7.16,0,0,0,2.47.52c1.25-.08-3.11-1.52-3.13-2s5-.23,5-.81-4.72-.24-4.82-.6,4.79-1,4.67-1.74-4.58,1-4.88.37,3.78-1.73,3.52-2.56-3.77,1.71-5.76,1.39c-.52-.09-1.11-.3-1.17-.9a16.27,16.27,0,0,0,0-1.85c-.11-.52-.17-.93-.78-1-.77,0,.44,1.57-1.4,5.25A5.58,5.58,0,0,0,207.46,128Z"/><path class="cls-4" d="M205.81,125.54l1.35-.25,1.06,3.52s-.45.25-1.24.62Z"/><path class="cls-30" d="M181.82,132.76l-7.1-1.28-5.07,2a23.46,23.46,0,0,0,11.79,6.18Z"/><path class="cls-28" d="M175.82,123.47s16.22,5,30,2l1.23,4.09s-17.27,9.29-32.54,5.77S175.82,123.47,175.82,123.47Z"/><path class="cls-31" d="M172.91,164.68c4.54,1.32,10.49,2.89,16.81,4.08a90.32,90.32,0,0,1-15.21-7.65Z"/><rect class="cls-32" width="360" height="216"/></g></g></svg>